# xmcd
#
# Track frame offsets:
#	150
#	18253
#	37306
#	50535
#	62943
#	75694
#	88783
#	101376
#	116393
#	130342
#	142498
#	154568
#	168004
#	181525
#	194692
#	210474
#	225382
#	243217
#	256247
#	271844
#
# Disc length: 3885 seconds
#
# Revision: 2
# Processed by: cddbd v1.5.2PL0 Copyright (c) Steve Scherf et al.
# Submitted via: EZCDAudioConverter 2.1.7.1
#
DISCID=0b0f2b14
DTITLE=V/A - Boddie Recording Company 3/3
DYEAR=2011
DGENRE=Rhythm and Blues
TTITLE0=Rev. R.L. Hubbard - Child Of The King
TTITLE1=Brother Bill - Wha's Happ'nin'
TTITLE2=Guiding Lights - Lost In Sin
TTITLE3=Wings Of Faith Juniors Of Grand Rapids, MI - I Can't Thank Him Enough
TTITLE4=Seven Revelators - Keep Holding On
TTITLE5=The Victory 5 - Have You Been To The Pool
TTITLE6=Sounds Of Soul - Gospel Train
TTITLE7=Corinthian Singers - Why? (It's A Shame)
TTITLE8=Fantastic Lightning Ares - Jesus You Are My Shining Star
TTITLE9=Golden Harmonizers - Won't Be Back No More
TTITLE10=Gospel Hebrews - Jesus Is All Over Me
TTITLE11=Gospel Fabulators - Read It In The Bible
TTITLE12=Spiritual Believers - Sweet To Know
TTITLE13=Silver Kings - Trouble The Water
TTITLE14=Cleveland Golden Echoes - Used To Live On Broadway
TTITLE15=Royal Kings - Look Out For Jesus
TTITLE16=Swanee Nightingales - I Know The Lord Will Make A Way
TTITLE17=North Wind Of Cleveland, Ohio - If I've Done Anything Wrong
TTITLE18=Gospel Ensemble - What You Need
TTITLE19=Jaunita Ellis - Make A Joyful Noise
EXTD=
EXTT0=
EXTT1=
EXTT2=
EXTT3=
EXTT4=
EXTT5=
EXTT6=
EXTT7=
EXTT8=
EXTT9=
EXTT10=
EXTT11=
EXTT12=
EXTT13=
EXTT14=
EXTT15=
EXTT16=
EXTT17=
EXTT18=
EXTT19=
PLAYORDER=
